<svg width="32" height="32" viewBox="0 0 32 32" fill="none" xmlns="http://www.w3.org/2000/svg">
<rect width="32" height="32" rx="8" fill="black"/>
<path d="M4.94318 19H4.20455L6.34091 13.1818H7.06818L9.20455 19H8.46591L6.72727 14.1023H6.68182L4.94318 19ZM5.21591 16.7273H8.19318V17.3523H5.21591V16.7273Z" fill="#C6538C"/>
<path d="M14.0844 13.1818V19H13.4026L10.2322 14.4318H10.1753V19H9.4708V13.1818H10.1526L13.3344 17.7614H13.3913V13.1818H14.0844ZM16.6497 19H14.8542V13.1818H16.7292C17.2936 13.1818 17.7766 13.2983 18.1781 13.5312C18.5796 13.7623 18.8874 14.0947 19.1014 14.5284C19.3154 14.9602 19.4224 15.4773 19.4224 16.0795C19.4224 16.6856 19.3145 17.2074 19.0986 17.6449C18.8826 18.0805 18.5682 18.4157 18.1554 18.6506C17.7425 18.8835 17.2406 19 16.6497 19ZM15.5588 18.375H16.6042C17.0853 18.375 17.484 18.2822 17.8003 18.0966C18.1165 17.911 18.3523 17.6468 18.5076 17.304C18.6629 16.9612 18.7406 16.553 18.7406 16.0795C18.7406 15.6098 18.6639 15.2055 18.5105 14.8665C18.3571 14.5256 18.1279 14.2642 17.823 14.0824C17.5181 13.8987 17.1383 13.8068 16.6838 13.8068H15.5588V18.375ZM19.9642 19V13.1818H21.9301C22.3847 13.1818 22.7578 13.2595 23.0495 13.4148C23.3411 13.5682 23.557 13.7794 23.6972 14.0483C23.8373 14.3172 23.9074 14.6231 23.9074 14.9659C23.9074 15.3087 23.8373 15.6127 23.6972 15.8778C23.557 16.143 23.3421 16.3513 23.0523 16.5028C22.7625 16.6525 22.3923 16.7273 21.9415 16.7273H20.3506V16.0909H21.9188C22.2294 16.0909 22.4794 16.0455 22.6688 15.9545C22.8601 15.8636 22.9983 15.7348 23.0836 15.5682C23.1707 15.3996 23.2142 15.1989 23.2142 14.9659C23.2142 14.733 23.1707 14.5294 23.0836 14.3551C22.9964 14.1809 22.8572 14.0464 22.6659 13.9517C22.4746 13.8551 22.2218 13.8068 21.9074 13.8068H20.6688V19H19.9642ZM22.7029 16.3864L24.1347 19H23.3165L21.9074 16.3864H22.7029Z" fill="white"/>
<path d="M24.4414 19V13.1818H27.9528V13.8068H25.146V15.7727H27.771V16.3977H25.146V18.375H27.9982V19H24.4414Z" fill="#70E61C"/>
</svg>
