<svg width="88" height="110" viewBox="0 0 88 110" fill="none" xmlns="http://www.w3.org/2000/svg">
<path fill-rule="evenodd" clip-rule="evenodd" d="M82 20L57.7492 76H34.9712L45.12 52.7912H44.6647C36.2919 65.6302 23.7996 74.082 6 76V53.1124C6 53.1124 17.3869 52.318 24.0808 44.0045H6V20.0004H26.3209V39.7435L26.777 39.7413L35.0809 20.0004H50.449V39.6183L50.905 39.6174L59.5204 20H82Z" fill="white"/>
<path d="M23.735 94.425L21.14 105H17.525L16.07 98.52L14.585 105H10.97L8.405 94.425H11.585L12.815 101.655L14.48 94.425H17.705L19.325 101.595L20.555 94.425H23.735ZM33.0226 100.695C33.0226 100.925 33.0076 101.155 32.9776 101.385H27.4126C27.4426 101.845 27.5676 102.19 27.7876 102.42C28.0176 102.64 28.3076 102.75 28.6576 102.75C29.1476 102.75 29.4976 102.53 29.7076 102.09H32.8426C32.7126 102.67 32.4576 103.19 32.0776 103.65C31.7076 104.1 31.2376 104.455 30.6676 104.715C30.0976 104.975 29.4676 105.105 28.7776 105.105C27.9476 105.105 27.2076 104.93 26.5576 104.58C25.9176 104.23 25.4126 103.73 25.0426 103.08C24.6826 102.43 24.5026 101.665 24.5026 100.785C24.5026 99.905 24.6826 99.145 25.0426 98.505C25.4026 97.855 25.9026 97.355 26.5426 97.005C27.1926 96.655 27.9376 96.48 28.7776 96.48C29.6076 96.48 30.3426 96.65 30.9826 96.99C31.6226 97.33 32.1226 97.82 32.4826 98.46C32.8426 99.09 33.0226 99.835 33.0226 100.695ZM30.0226 99.96C30.0226 99.6 29.9026 99.32 29.6626 99.12C29.4226 98.91 29.1226 98.805 28.7626 98.805C28.4026 98.805 28.1076 98.905 27.8776 99.105C27.6476 99.295 27.4976 99.58 27.4276 99.96H30.0226ZM37.1657 97.755C37.3957 97.355 37.7207 97.045 38.1407 96.825C38.5607 96.595 39.0557 96.48 39.6257 96.48C40.2957 96.48 40.9007 96.655 41.4407 97.005C41.9907 97.355 42.4207 97.855 42.7307 98.505C43.0507 99.155 43.2107 99.915 43.2107 100.785C43.2107 101.655 43.0507 102.42 42.7307 103.08C42.4207 103.73 41.9907 104.23 41.4407 104.58C40.9007 104.93 40.2957 105.105 39.6257 105.105C39.0557 105.105 38.5607 104.995 38.1407 104.775C37.7207 104.545 37.3957 104.23 37.1657 103.83V105H34.2257V93.9H37.1657V97.755ZM40.2257 100.785C40.2257 100.235 40.0757 99.81 39.7757 99.51C39.4857 99.2 39.1257 99.045 38.6957 99.045C38.2657 99.045 37.9007 99.2 37.6007 99.51C37.3107 99.82 37.1657 100.245 37.1657 100.785C37.1657 101.335 37.3107 101.765 37.6007 102.075C37.9007 102.385 38.2657 102.54 38.6957 102.54C39.1257 102.54 39.4857 102.385 39.7757 102.075C40.0757 101.755 40.2257 101.325 40.2257 100.785ZM48.9661 99.03H47.6461V105H44.6911V99.03H43.7761V96.585H44.6911V96.51C44.6911 95.43 45.0061 94.605 45.6361 94.035C46.2761 93.455 47.1911 93.165 48.3811 93.165C48.6211 93.165 48.8061 93.17 48.9361 93.18V95.685C48.8561 95.675 48.7461 95.67 48.6061 95.67C48.2861 95.67 48.0511 95.745 47.9011 95.895C47.7511 96.035 47.6661 96.265 47.6461 96.585H48.9661V99.03ZM52.9568 93.9V105H50.0168V93.9H52.9568ZM58.546 105.105C57.706 105.105 56.951 104.93 56.281 104.58C55.621 104.23 55.101 103.73 54.721 103.08C54.341 102.43 54.151 101.665 54.151 100.785C54.151 99.915 54.341 99.155 54.721 98.505C55.111 97.855 55.636 97.355 56.296 97.005C56.966 96.655 57.721 96.48 58.561 96.48C59.401 96.48 60.151 96.655 60.811 97.005C61.481 97.355 62.006 97.855 62.386 98.505C62.776 99.155 62.971 99.915 62.971 100.785C62.971 101.655 62.776 102.42 62.386 103.08C62.006 103.73 61.481 104.23 60.811 104.58C60.141 104.93 59.386 105.105 58.546 105.105ZM58.546 102.555C58.956 102.555 59.296 102.405 59.566 102.105C59.846 101.795 59.986 101.355 59.986 100.785C59.986 100.215 59.846 99.78 59.566 99.48C59.296 99.18 58.961 99.03 58.561 99.03C58.161 99.03 57.826 99.18 57.556 99.48C57.286 99.78 57.151 100.215 57.151 100.785C57.151 101.365 57.281 101.805 57.541 102.105C57.801 102.405 58.136 102.555 58.546 102.555ZM76.6021 96.585L74.4571 105H71.1571L69.9871 99.9L68.7721 105H65.4871L63.3571 96.585H66.2821L67.2271 102.165L68.4721 96.585H71.6221L72.9121 102.18L73.8421 96.585H76.6021Z" fill="white"/>
</svg>
